HIERARCHY
ROOT root
{
	OFFSET 0.000000 0.000000 0.000000
	CHANNELS 6 Xposition Yposition Zposition Zrotation Yrotation Xrotation
	JOINT lhip
	{
		OFFSET 0.058581 -0.082280 -0.017664
		CHANNELS 3 Zrotation Yrotation Xrotation
		JOINT lknee
		{
			OFFSET 0.043451 -0.386469 0.008037
			CHANNELS 3 Zrotation Yrotation Xrotation
			JOINT lankle
			{
				OFFSET -0.014790 -0.426874 -0.037428
				CHANNELS 3 Zrotation Yrotation Xrotation
				JOINT ltoe
				{
					OFFSET 0.041054 -0.060286 0.122042
					CHANNELS 3 Zrotation Yrotation Xrotation
					End Site
					{
						OFFSET 0.000000 0.000000 0.000000
					}
				}
			}
		}
	}
	JOINT rhip
	{
		OFFSET -0.060310 -0.090513 -0.013543
		CHANNELS 3 Zrotation Yrotation Xrotation
		JOINT rknee
		{
			OFFSET -0.043257 -0.383688 -0.004843
			CHANNELS 3 Zrotation Yrotation Xrotation
			JOINT rankle
			{
				OFFSET 0.019056 -0.420046 -0.034562
				CHANNELS 3 Zrotation Yrotation Xrotation
				JOINT rtoe
				{
					OFFSET -0.034840 -0.062106 0.130323
					CHANNELS 3 Zrotation Yrotation Xrotation
					End Site
					{
						OFFSET 0.000000 0.000000 0.000000
					}
				}
			}
		}
	}
	JOINT lowerback
	{
		OFFSET 0.004439 0.124404 -0.038385
		CHANNELS 3 Zrotation Yrotation Xrotation
		JOINT upperback
		{
			OFFSET 0.004488 0.137956 0.026820
			CHANNELS 3 Zrotation Yrotation Xrotation
			JOINT chest
			{
				OFFSET -0.002265 0.056032 0.002855
				CHANNELS 3 Zrotation Yrotation Xrotation
				JOINT lowerneck
				{
					OFFSET -0.013390 0.211636 -0.033468
					CHANNELS 3 Zrotation Yrotation Xrotation
					JOINT upperneck
					{
						OFFSET 0.010113 0.088937 0.050410
						CHANNELS 3 Zrotation Yrotation Xrotation
						End Site
						{
							OFFSET 0.000000 0.000000 0.000000
						}
					}
				}
				JOINT lclavicle
				{
					OFFSET 0.071702 0.114000 -0.018898
					CHANNELS 3 Zrotation Yrotation Xrotation
					JOINT lshoulder
					{
						OFFSET 0.122921 0.045205 -0.019046
						CHANNELS 3 Zrotation Yrotation Xrotation
						JOINT lelbow
						{
							OFFSET 0.255332 -0.015649 -0.022946
							CHANNELS 3 Zrotation Yrotation Xrotation
							JOINT lwrist
							{
								OFFSET 0.265709 0.012698 -0.007375
								CHANNELS 3 Zrotation Yrotation Xrotation
								End Site
								{
									OFFSET 0.000000 0.000000 0.000000
								}
							}
						}
					}
				}
				JOINT rclavicle
				{
					OFFSET -0.082954 0.112472 -0.023707
					CHANNELS 3 Zrotation Yrotation Xrotation
					JOINT rshoulder
					{
						OFFSET -0.113228 0.046853 -0.008472
						CHANNELS 3 Zrotation Yrotation Xrotation
						JOINT relbow
						{
							OFFSET -0.260127 -0.014369 -0.031269
							CHANNELS 3 Zrotation Yrotation Xrotation
							JOINT rwrist
							{
								OFFSET -0.269108 0.006794 -0.006027
								CHANNELS 3 Zrotation Yrotation Xrotation
								End Site
								{
									OFFSET 0.000000 0.000000 0.000000
								}
							}
						}
					}
				}
			}
		}
	}
}
MOTION
Frames: 7
Frame Time: 0.033333
-0.675418 0.960284 0.973485 72.024618 -1.164247 92.269677 2.865564 4.533717 2.842077 5.100834 -4.858801 -6.953974 -0.143134 12.950201 -11.169512 0.000000 -0.000000 0.000000 -1.551311 -1.495101 -5.724655 -5.310571 1.344275 -2.402330 3.105132 -5.989848 -12.530457 0.000000 -0.000000 0.000000 -1.085951 1.731307 -2.440393 2.573460 -2.802149 11.646390 -0.285171 2.881244 -10.597667 -2.970608 8.228139 7.657488 2.166750 4.445224 0.452131 -24.102934 0.387519 -3.089162 -59.402248 -0.439957 19.661227 4.865351 -22.061440 2.377700 -11.352591 -16.369867 13.442315 27.349773 8.753111 3.921174 53.587633 3.584436 18.048825 0.553365 20.673265 8.817272 11.815153 11.323191 12.866687 
-0.675851 0.959766 0.973206 71.997816 -1.134638 92.440004 2.923374 4.509734 2.584719 5.098416 -4.910074 -6.864718 -0.257948 12.962541 -11.080882 0.000000 -0.000000 0.000000 -1.463353 -1.395114 -5.969404 -5.327723 1.390910 -2.377030 3.374279 -6.054176 -12.495274 0.000000 -0.000000 0.000000 -0.988900 1.612141 -2.117699 2.471071 -2.677637 10.716853 -0.213119 2.869242 -10.053850 -2.915101 8.163962 7.817618 2.174477 4.529784 0.480707 -23.813432 0.402140 -3.097773 -59.740570 -0.274105 19.867319 5.132761 -22.240341 2.683184 -10.897732 -16.560430 12.580554 27.119349 8.728303 3.869550 53.900216 3.497546 18.272659 0.432327 20.829666 9.102026 11.323128 11.549640 12.382431 
-0.676017 0.959325 0.973115 72.077746 -1.156424 92.615515 2.917884 4.397659 2.336719 5.096527 -4.841703 -6.778915 -0.238397 12.945387 -11.043897 0.000000 -0.000000 0.000000 -1.438349 -1.390619 -6.169269 -5.380176 1.313362 -2.330340 3.386765 -6.053068 -12.567228 0.000000 -0.000000 0.000000 -1.053185 1.586652 -2.111074 2.515465 -2.735023 10.621789 -0.143400 2.855696 -10.025354 -2.921292 8.453959 7.902785 2.333078 4.630133 0.372507 -23.714111 0.308895 -3.119647 -59.904383 -0.181011 19.916424 5.291042 -22.304279 2.601245 -11.140153 -16.535040 12.507428 26.974978 8.721491 3.855125 53.992285 3.347532 18.317605 0.289104 21.136103 9.250617 11.570094 11.510779 12.391633 
-0.676206 0.958708 0.973222 72.007023 -1.159089 92.643129 2.969502 4.311211 2.322978 5.045574 -4.700870 -6.739719 -0.230507 12.916168 -10.998013 0.000000 -0.000000 0.000000 -1.452173 -1.401100 -6.201961 -5.270782 1.333949 -2.326168 3.393662 -6.006985 -12.520093 0.000000 -0.000000 0.000000 -1.015645 1.625886 -2.074990 2.501639 -2.765963 10.737047 -0.157016 2.838289 -10.045560 -2.814854 8.622904 8.093988 2.468255 4.654901 0.328410 -23.670245 0.138801 -2.957391 -59.896769 -0.159167 19.818570 5.419597 -22.475907 2.428926 -11.367384 -16.256292 12.464128 26.957565 8.866119 4.050942 54.010626 3.355233 18.269637 0.134197 21.378006 9.026823 11.696399 11.567903 12.291520 
-0.676312 0.958421 0.973277 71.960201 -1.229606 92.661486 2.889744 4.337583 2.330701 5.053859 -4.639483 -6.810824 -0.289068 12.959987 -10.981529 0.000000 -0.000000 0.000000 -1.501705 -1.407675 -6.211853 -5.323253 1.270283 -2.368770 3.423813 -5.880889 -12.510836 0.000000 -0.000000 0.000000 -1.088751 1.668733 -2.110741 2.525357 -2.768742 10.907482 -0.152974 2.766672 -10.046473 -2.783521 8.907589 8.066515 2.473304 4.757336 0.204703 -23.657235 0.106794 -3.019897 -59.909616 -0.115947 19.810505 5.408742 -22.547619 2.267414 -11.310719 -16.372574 12.514001 27.000135 8.868574 3.978295 53.971684 3.486897 18.240972 0.176435 21.305999 8.981344 11.740920 11.562267 12.345305 
-0.675970 0.957874 0.973285 71.973340 -1.145284 92.541942 3.000802 4.236417 2.490271 5.096262 -4.659293 -6.752482 -0.187534 12.973805 -11.037952 0.000000 -0.000000 0.000000 -1.367993 -1.451766 -5.981019 -5.351395 1.355486 -2.494637 3.465359 -5.853610 -12.497364 0.000000 -0.000000 0.000000 -0.927522 1.676350 -2.099823 2.497245 -2.824072 11.072197 -0.194497 2.792431 -9.951798 -2.631703 8.947407 8.254843 2.469617 4.940084 0.215554 -23.688911 0.101079 -3.035057 -59.859311 -0.201743 19.773123 5.372332 -22.509816 2.348499 -11.228993 -16.117170 12.449166 26.969870 8.885664 3.977275 53.927495 3.604842 18.269856 0.284889 21.333376 8.994935 11.590694 11.408602 12.316306 
-0.675815 0.957452 0.973209 71.911756 -1.165584 92.513429 3.011167 4.192631 2.638494 5.075581 -4.520058 -6.911796 -0.230974 13.062133 -11.042808 0.000000 -0.000000 0.000000 -1.369072 -1.414276 -5.953212 -5.355112 1.288801 -2.434352 3.423110 -5.846873 -12.571350 0.000000 -0.000000 0.000000 -0.918384 1.647497 -1.978723 2.461865 -2.751169 10.901583 -0.168870 2.760495 -9.776084 -2.521621 9.164976 8.244704 2.693309 5.102813 0.569019 -23.726388 0.106320 -2.891466 -59.868915 -0.254490 19.626959 5.468724 -22.706444 2.400586 -10.691659 -16.678614 12.317661 26.951801 8.916450 4.077988 53.963441 3.677796 18.290877 0.371474 21.393447 9.101831 11.071453 11.773002 12.111726 
